<?xml version="1.0" standalone="no"?>
<!DOCTYPE svg PUBLIC "-//W3C//DTD SVG 20010904//EN"
 "http://www.w3.org/TR/2001/REC-SVG-20010904/DTD/svg10.dtd">
<svg version="1.0" xmlns="http://www.w3.org/2000/svg"
 width="1200.000000pt" height="672.000000pt" viewBox="0 0 1200.000000 672.000000"
 preserveAspectRatio="xMidYMid meet">
<metadata>
Created by potrace 1.16, written by Peter Selinger 2001-2019
</metadata>
<g transform="translate(0.000000,672.000000) scale(0.100000,-0.100000)"
fill="#000000" stroke="none">
<path d="M0 3360 l0 -3360 6000 0 6000 0 0 3360 0 3360 -6000 0 -6000 0 0
-3360z m7510 420 c11 -11 20 -29 20 -41 0 -11 -43 -186 -95 -387 -64 -249
-101 -371 -112 -379 -9 -7 -30 -13 -47 -13 -25 0 -49 19 -145 115 l-114 115
-48 -45 c-49 -46 -81 -55 -120 -35 -13 8 -19 21 -19 46 0 31 14 48 144 179
153 154 171 165 214 125 34 -32 28 -65 -25 -121 l-47 -50 62 -62 c34 -33 63
-59 66 -57 2 3 31 109 63 236 l59 231 -237 -61 -238 -61 26 -27 c34 -35 35
-84 4 -110 -41 -32 -62 -23 -149 64 -89 88 -102 121 -62 155 21 18 695 201
748 202 20 1 40 -7 52 -19z m-1290 -70 c78 -13 174 -57 215 -100 l29 -31 -52
-52 c-45 -45 -54 -50 -70 -40 -84 60 -107 68 -182 68 -63 0 -82 -4 -120 -27
-80 -47 -112 -106 -112 -209 0 -72 16 -114 61 -162 84 -92 241 -96 333 -10
l27 25 55 -48 c31 -26 56 -53 56 -60 0 -20 -60 -65 -130 -98 -61 -29 -72 -31
-175 -30 -124 0 -168 13 -252 70 -56 39 -113 114 -139 184 -11 29 -17 77 -18
135 0 80 3 97 30 155 71 150 172 216 369 239 6 0 39 -4 75 -9z m1960 -20 c36
-11 73 -25 83 -33 18 -13 18 -16 -8 -78 -15 -35 -28 -65 -30 -67 -1 -1 -29 10
-61 25 -48 22 -74 27 -141 28 -96 0 -136 -20 -141 -72 -4 -42 17 -59 101 -83
166 -47 213 -64 250 -88 103 -68 104 -236 1 -321 -103 -85 -338 -95 -487 -20
-69 35 -68 34 -40 97 33 74 36 77 65 58 86 -56 272 -76 329 -35 20 14 29 29
29 49 0 51 -3 52 -242 121 -128 36 -188 103 -188 207 0 106 81 199 193 221 29
6 61 13 72 15 36 8 149 -5 215 -24z m1690 0 c103 -30 105 -33 75 -109 -13 -35
-26 -66 -28 -68 -2 -2 -31 9 -63 24 -48 22 -74 27 -141 28 -68 0 -86 -4 -110
-21 -30 -23 -38 -43 -29 -79 7 -27 47 -45 168 -75 106 -27 134 -37 181 -68
100 -67 104 -234 6 -316 -58 -49 -115 -68 -219 -73 -77 -4 -113 -1 -179 16
-87 22 -151 54 -151 76 0 13 49 125 54 125 2 0 23 -11 47 -24 60 -33 142 -49
227 -44 80 4 112 24 112 69 0 50 -4 52 -243 120 -91 26 -158 78 -178 136 -17
53 -6 144 24 188 76 112 255 150 447 95z m-7690 -295 l0 -305 185 0 185 0 0
-75 0 -75 -275 0 -275 0 0 380 0 380 90 0 90 0 0 -305z m1230 -66 c91 -204
167 -375 168 -380 2 -5 -39 -9 -91 -9 l-96 0 -19 53 c-11 28 -26 64 -33 80
l-12 27 -172 0 -172 0 -32 -70 c-17 -39 -31 -75 -31 -80 0 -6 -39 -10 -95 -10
-52 0 -95 1 -95 3 0 2 13 30 28 63 16 32 91 202 168 376 l139 317 90 1 90 0
165 -371z m920 340 c66 -32 102 -66 132 -122 32 -59 32 -183 1 -243 -20 -38
-67 -86 -108 -109 -16 -10 -9 -23 64 -127 44 -64 81 -119 81 -122 0 -3 -42 -6
-93 -6 l-93 0 -74 105 -73 105 -78 0 -79 0 0 -105 0 -105 -90 0 -90 0 0 381 0
380 223 -3 c216 -3 223 -4 277 -29z m1050 -341 c91 -204 167 -375 168 -380 2
-4 -39 -8 -91 -8 l-95 0 -33 80 -33 80 -175 -2 -175 -3 -31 -77 -30 -78 -86 0
c-47 0 -88 2 -91 5 -3 3 70 174 161 380 l166 375 90 0 90 -1 165 -371z m3790
297 l0 -75 -120 0 -120 0 0 -305 0 -305 -90 0 -90 0 0 305 0 305 -120 0 -120
0 0 75 0 75 330 0 330 0 0 -75z m-2360 -545 c31 -31 25 -67 -19 -111 -45 -45
-72 -49 -107 -13 -33 32 -26 64 23 110 41 39 74 43 103 14z"/>
<path d="M3100 3388 c-30 -73 -56 -136 -58 -140 -2 -4 48 -8 112 -8 l116 0
-19 48 c-11 26 -37 89 -58 139 l-39 93 -54 -132z"/>
<path d="M4010 3425 l0 -125 100 0 c104 0 138 9 172 46 44 50 26 147 -34 184
-27 17 -50 20 -135 20 l-103 0 0 -125z"/>
<path d="M5120 3519 c0 -3 -25 -66 -55 -139 -30 -74 -53 -135 -51 -137 2 -2
53 -2 113 -1 l109 3 -57 140 c-32 77 -58 137 -59 134z"/>
</g>
</svg>
